# xmcd
#
# Track frame offsets: 
#        180
#        18694
#        35860
#        52795
#        71678
#        87336
#        105098
#        120091
#        137400
#        150135
#        162283
#        181622
#        199833
#        213332
#        232675
#        248870
#        262069
#        276005
#        298501
#        306369
#
# Disc length: 4280 seconds
#
# Revision: 2
# Processed by: cddbd v1.5.2PL0 Copyright (c) Steve Scherf et al.
# Submitted via: ExactAudioCopyFreeDBPlugin 1.0
#
DISCID=0410b614
DTITLE=Kenny Rogers - The Best of Kenny Rogers
DYEAR=1900
DGENRE=Country
TTITLE0=I Will Always Love You
TTITLE1=We've Got Tonight
TTITLE2=Love Will Turn You Around
TTITLE3=She Believes in Me
TTITLE4=But You Know I Love You
TTITLE5=This Woman
TTITLE6=Love the World Away
TTITLE7=Buried Treasure
TTITLE8=Love or Something Like It
TTITLE9=California Dreaming
TTITLE10=Sweet Music Man
TTITLE11=Lady
TTITLE12=Take Me Home, Country Road
TTITLE13=What About Me?
TTITLE14=Crazy
TTITLE15=House of the Rising Sun
TTITLE16=500 Miles
TTITLE17=You've Got a Friend
TTITLE18=Jambalaya
TTITLE19=Till I Can Make It On My Own
EXTD=
EXTT0=
EXTT1=
EXTT2=
EXTT3=
EXTT4=
EXTT5=
EXTT6=
EXTT7=
EXTT8=
EXTT9=
EXTT10=
EXTT11=
EXTT12=
EXTT13=
EXTT14=
EXTT15=
EXTT16=
EXTT17=
EXTT18=
EXTT19=
PLAYORDER=
